<svg xmlns="http://www.w3.org/2000/svg" xml:space="preserve" fill-rule="evenodd" clip-rule="evenodd" viewBox="0.1 0.1 593.3 291.4"><path fill="#020305" stroke="#020305" stroke-width=".1" d="M171 230.3c-4-.6-8.2-3.7-7.9-8 0-2.4 1.6-4.4 3.3-6 8-7.7 15.2-16.5 19.4-26.9.8-1.5.8-3.3.8-5-13.3 2-25.7 7.5-38.3 11.6-11.7 4.5-23.5 9-34.8 14.2-4.5 2.2-9.5 3.2-14 5.3-4.4 3-9 5.5-13.4 8.4-6.7 4.1-14.5 5.9-21.4 9.6-4.8 2-9.8 5.5-15.2 4-2.9-1.3-6.5-3.5-6-7.2.9-6 7.3-9.3 8.5-15.1-2.4.2-4.5 1-6.6 2-6.9 2.1-13.7 4.5-19.9 8.2-4.5 2.7-8.3 7.7-14 7.7-5-.1-7.6-5-10.7-8-2-5.4 1.5-10.8 4.4-15.1 8-11.8 21-18.6 33.6-24.2 5.5-3.1 11-6.3 17-8.1 6.4-2.3 13.6-2.3 19.9-5.1 3.1-2.3 6.3-4.7 10-6.1 19.8-8 39.3-16.5 59.7-23 18.6-7.3 38.1-11.8 57-18 3.9-1.2 7.7-2.2 11.3-4 3.1-1.5 3.9-5.2 4.8-8.2a252 252 0 0 1 8-25.9c4.8-12.4 9.5-25 17-36.1a66.8 66.8 0 0 1 32.3-24.5c12.3-3.8 25-6.4 37.6-8.9 11-1.6 22.7-4.6 33.7-1 6.3 2.4 11.9 6.4 16.7 11.1 6.2 6.1 13 11.7 18.9 18.1 3 3.4 7.2 5.8 11.8 6.1 7.8-3 15.3-7.6 20.2-14.6a80.8 80.8 0 0 1 25.1-25C445.9 9 451.5 4 458.2 1.3c9.3-3.4 19.2 2.4 24.2 10.1 2.1 3.9 4.4 7.8 5.7 12 .7 8 .6 16.8-4.2 23.6-4 5-11 4.8-16.7 6-2.2 3-2 6.7-3.4 10-.8 3-3.2 5.1-4.1 8 4 1 7.6-1.6 11-3.3 6-3.1 11.3-7.3 17-11 5-3 4.6-10.3 9.2-13.8 6.4-4.6 14.1-6.6 21-10.1 5-3.5 10.1-6.6 15.2-9.8 6.6-4.6 15.1-8.4 23.3-5.5 9.2 2 16.6 8.6 21.7 16.3a83.9 83.9 0 0 1 13 27.6 43.1 43.1 0 0 1 1.8 20 9.8 9.8 0 0 1-9.5 7.5c-7.7 1-14-4.3-20.9-6.5a7.8 7.8 0 0 0-6.7.3c-5 2.6-9.6 5.7-14.4 8.6-6.3 3.7-13.8 5-20.1 8.9-3 1.6-6.2 3-9 5-5.3 3.7-11.5 5.8-16.3 10.1a21.4 21.4 0 0 1-1.4 20.2c-2.6 4.7-7.7 7-11.7 10.2-11 9-23.5 15.7-34.3 25-3 2.4-5.3 6.7-3.8 10.6 1.7 4.8 2.2 10 1.6 15.1-2 8.5-7.9 15.2-13 22a347.8 347.8 0 0 1-43.5 42.4c-6 4-13.5 5.4-19.4 9.8-6.7 4.5-11.6 11.5-19.1 14.8-1.7 1-3.5-.3-5.2-.7l-.8-4c-3.1 1.2-4.5 4.6-7 6.6s-5.3 5.6-8.8 3.8c-2.7-1.4-6.3 0-8.5-2.4-3.8-5-3.4-11.7-3-17.7 0-4 1.7-7.7 2.1-11.6.7-4.7 5.1-8 5-13 .6-2.8.7-6.2 2.8-8.4 7-6.1 13.8-12.6 22.6-16-3.1-2.3 6.8-8.3 8.8-9.6 4.5-3.5 8.8-7.2 13-11 3.2-3 6.9-5.3 9.8-8.5l.1-1.4c-6-4.1-14.1-6.5-21.1-3.3-.2 2.1-1.4 4.2-1.5 6.3-1.9 4.9-2 7.8-7 13-2.8 2.8-8 9-9.2 10.4-1.3 1.5-3.1 3-4.8 4.8a163.7 163.7 0 0 0-17.4 18.5 17.8 17.8 0 0 0-3 10.1c-.8 3.6-3 7-6.1 8.9-2.9.3-5.2-2.1-7.7-3.2a52.2 52.2 0 0 1-7.6-5.7 15.8 15.8 0 0 0-5.2 10.6v.4c-2.7 2.2-6.6 3.2-9.7 1.5-2.6-2-4.7-4.6-7.2-6.7-9.2-7.6-20.2-12.7-30.6-18.4-7.5-4.3-14.5-9.5-21.5-14.5-2-1.6-3.8-3.8-6.5-4.2h-.4c-11 3.6-21.8 8.4-33.1 10.5-4.6.8-7.4.6-11.8 0Z"/><path fill="#b93817" stroke="#b93817" stroke-width=".1" d="M451.6 36.8c-6.8-4.4-15.2-4.4-23-5.1 8.7-9 19.1-16 29.6-22.7 3.4-2 7.7-1.2 11 .4 4 2 6.2 6.2 8.5 9.8 2.7 3.8 2.8 8.7 3.1 13.1-.2 3.4-.6 7-2.4 9.9-3.5 2.7-8.4 2.3-12.6 3.7-1.5.4-1.8 2-2 3.3a30.2 30.2 0 0 0-12.2-12.4Zm79.6 28.8a44 44 0 0 0-16.9-13c-4.5-2-9.6-1.6-14.4-2 0-3 3.2-4.4 5.7-5.1 10.9-3 20.5-9.3 30.3-14.8 5.1-3 10-8.7 16.6-7.2 9.1 1.7 16 9 20.9 16.5 7 9.3 10.5 20.8 12 32.3 0 3.4.1 7.2-2 10.1-1.3 1.2-3-.3-4.3-.7-7.4-3.2-14.7-7-22.7-8.2-2.9.5-5 3-7.5 4.2-4 2-7.3 5.1-11.4 6.7-1.3-1-1-2.8-1.5-4.1-1.1-5-2.5-10-4.8-14.7Z"/><path fill="#87240c" stroke="#87240c" stroke-width=".1" d="M470 25c2.9-1.6 5.3-3.6 7.7-5.8 2.7 3.8 2.8 8.7 3.1 13.1-.2 3.4-.6 7-2.4 9.9-3.5 2.7-8.4 2.3-12.6 3.7-1.5.4-1.8 2-2 3.3a30.2 30.2 0 0 0-12.2-12.4c6.8-3 12.1-8.2 18.5-11.8Zm94.1 23c3.7-1.9 6-5.6 9.3-8 7 9.3 10.5 20.8 12 32.3 0 3.4.1 7.2-2 10.1-1.3 1.2-3-.3-4.3-.7-7.4-3.2-14.7-7-22.7-8.2-2.9.5-5 3-7.5 4.2-4 2-7.3 5.1-11.4 6.7-1.3-1-1-2.8-1.5-4.1-1.1-5-2.5-10-4.8-14.7 3.7-3.3 8.6-4.3 13-6.5 7-3 13.1-7.6 20-11.1Z"/><path fill="#538e5e" stroke="#538e5e" stroke-width=".1" d="M309.4 149.3c-10 .5-20-1.1-29.9-2-12.5-1.9-25-4.5-36.8-9.1-6.3-2.5-12.5-6-16.8-11.4-2.9-6 0-12.6 1.4-18.5 2.8-12.5 8-24.3 12.9-36a82 82 0 0 1 14.4-23.8c5.1-5.3 11.2-10 18.1-12.8 13.3-5.4 27.7-7.4 41.6-10.7 7-1.2 14-2.1 21.1-2.2 8.1-.2 15.9 3.5 21.9 8.8 12 10.6 22.9 22.4 33 34.9 3.3 4 5.8 8.8 9.2 12.8 1.6 1.4 4 1.3 5.9 1.8 9 1.5 17.6 5 24.7 10.6 2.5.6 5.2 3.2 4.7 6a61.8 61.8 0 0 1-47.5 13 56 56 0 0 1-15.3-6c-3.1-3-4.2-7.5-5.6-11.5-2.8-6.5-6.8-12.4-10.2-18.6-2.4-4.2-5.3-8-8.3-11.8a10.6 10.6 0 0 0-4.5-3c-1.3-.3-3 .7-2.7 2.2 1 3 3.5 5.2 4.5 8 4.3 5.5 7.4 11.7 10.9 17.6 5.8 12 11 24.5 13.3 37.7.3 2.4-1.8 4-3.4 5.5-5.3 4.2-10.4 8.8-16.8 11.4-6.6 2.8-13.6 4.3-20.7 5.7-6.3 1.3-12.8.7-19.1 1.4Zm139.8-23.8a45.3 45.3 0 0 0-11.7-14.2c-1.8-1.5-4-2.6-5.2-4.6 3.6-2.8 9.2-5 9.3-10.4-1-6-7.1-9.2-11.8-12.3a62.5 62.5 0 0 0-22.1-9c-4.6-1-6.5-5.5-9.1-8.7-2-2.8-4.5-5.2-5.7-8.4 3.9.2 7.5 1.8 11.2 2.9 8.2 2.1 16.2 5.3 23.8 9 8.5 3.9 17.6 6.4 25.6 11.4 12 6.9 22.9 16 30.6 27.5l.2-.1c2.5 6 5.3 12.2 5.7 18.8.4 3.1-2.6 5-4.6 7-6.6 6.2-14.5 10.9-22 16.1-2.3 1.5-4.4 3.4-7 4.3 0-10.2-3.6-20-7.2-29.3Zm-31.6 30.3c-5.3-3-9.7-7.4-15.2-10.2-7.5-4-15.8-7-21.9-13.4-1.5-1.7-3-3.6-5-5-.8-5 0-10-1.9-14.8 5 2.6 10.3 4 15.7 5.2 9.1 1.1 18.3-1 27.2-2.6 4-.6 7.3 1.8 10.5 3.6 4.2 3.1 7.7 7.2 10 11.8a62.2 62.2 0 0 1 5.8 30.9c-.3 3-2 5.6-3.6 8a64.1 64.1 0 0 0-21.6-13.5Zm-312 35a30.9 30.9 0 0 0-19-17c.6-.8 1.3-1.6 2.3-2 8.7-3.8 17.6-7 26.6-10.4a784 784 0 0 1 88-29.9c2.4-.6 4.5-2.3 7-2.2-5.6 8.3-9.1 17.8-13.3 26.8-.5 1-.8 2.3-1.7 3-.4 3.6-2.4 6.7-3.1 10.3-.8 2.2-1 5.5-3.9 6-17.8 5.6-35.8 10.7-53 18-9.9 3.6-19.5 7.8-29.3 11.4 1.3-4.6 1.5-9.6-.6-14Zm281.3 41.7a53.9 53.9 0 0 0-23.6-11.3c-1.1-.2-2-.8-2.8-1.7 2.1-2 4.5-3.7 7-5.3 6.7-4.4 12.2-10.4 18.7-15.2 3.2-3.1 6.8-5.8 10-9 .3-2.1-1.3-4.6-3.6-4.2l-5.1 3c-2-3.4-5.7-4.8-8.5-7.3 1.5-5 3.4-10.5 8-13.5 5-3.1 10-6.3 15.5-8.5 3.6-1.8 7.4.2 10.9 1.1 5.2 1.5 9.7 4.7 14.3 7.5 3.1 2 5.4 5 7.3 8.2a33.9 33.9 0 0 1 3.5 21c-1.3 4.8-4.4 8.9-7.3 12.9-9.5 12.6-20.6 24-32.4 34.5-1 1.2-2.3 0-2.6-1.1a35 35 0 0 0-9.5-10.7l.2-.4Z"/><path fill="#3c683e" stroke="#3c683e" stroke-width=".1" d="M366.4 93.2c-2.8-6.5-6.8-12.4-10.2-18.6 2-.4 4.1-1 6.1-.2 10.1 3.3 18.6 10 27.5 15.7 4.1 3.6 9.2 7.7 15 6.8 8.4-2.1 16.6-5 25.3-5.2 2.5.6 5.2 3.2 4.7 6a61.8 61.8 0 0 1-47.5 13 56 56 0 0 1-15.3-6c-3.1-3-4.2-7.5-5.6-11.5Zm-21.2-23.1c4.3 5.4 7.4 11.6 10.9 17.5 5.8 12 11 24.5 13.3 37.7.3 2.4-1.8 4-3.4 5.5-5.3 4.2-10.4 8.8-16.8 11.4-6.6 2.8-13.6 4.3-20.7 5.7-6.3 1.3-12.8.7-19.1 1.4 3.3-2.7 7.6-3.7 11-6 4.5-2.8 9.5-5 13.2-8.8 4.5-6 8-12.8 9.8-20.2 2.5-9.1 2.2-18.6 2-28 0-5.4-1.7-10.9-.2-16.2Zm139 38.6.1-.1c2.5 6 5.3 12.2 5.7 18.8.4 3.1-2.6 5-4.6 7-6.6 6.2-14.5 10.9-22 16.1-2.3 1.5-4.4 3.4-7 4.3 0-10.2-3.6-20-7.2-29.3 10.7-7.5 23.6-10.7 35-16.8ZM437 130.4a62.2 62.2 0 0 1 5.7 30.9c-.3 3-2 5.6-3.6 8a64.1 64.1 0 0 0-21.6-13.5c0-2.5.2-5.3 1.7-7.5a53.1 53.1 0 0 1 17.8-17.9Zm-271.8 38.7c10-3.6 20.4-6 30.2-10-.4 3.6-2.4 6.7-3.1 10.3-.8 2.2-1 5.5-3.9 6-17.8 5.6-35.8 10.7-53 18-9.9 3.6-19.5 7.8-29.3 11.4 1.3-4.6 1.5-9.6-.6-14 11.6-4.6 23.2-9.3 35-13.4 8.3-2.4 16.3-5.9 24.7-8.3Zm269.7 7.2a33.9 33.9 0 0 1 3.5 21c-1.3 4.8-4.4 8.9-7.3 12.9-9.5 12.6-20.6 24-32.4 34.5-1 1.2-2.3 0-2.6-1.1a35 35 0 0 0-9.5-10.7l.2-.4c1-3.8 4.5-6 7.3-8.4 6.5-5.5 12.8-11.2 18.8-17.3a67.4 67.4 0 0 0 22-30.5Z"/><path fill="#d4d8c1" stroke="#d4d8c1" stroke-width=".1" d="M434.8 65c-9-3.4-17.8-7.5-27.2-10l.1-1.2c5.7-3.6 10.4-8.4 15.3-13 3.8-3 9-2.4 13.5-2.1 5.5.3 11 2 15.2 5.6 2.9 3.1 5.9 6.6 6 11.1-.8 6.1-5.4 10.8-10.2 14.3-4.4-1.3-8.6-3.3-13-4.6l.3-.1Zm45.6 28.2c-4-4.2-8.6-8-13.3-11.6-1.5-1.2-3.9-1.7-4.6-3.6 13.7-3.3 24.9-12.4 36-20.5 9.8-2.8 21 2.5 26 11.3l.3-.2c2.3 4.5 5.7 9.1 5.3 14.4-3 5.3-8.7 8-13.7 11-8 4.6-16 10-25.1 12a90 90 0 0 0-11-12.8Z"/><path fill="#85906e" stroke="#85906e" stroke-width=".1" d="M451.7 44.3c2.9 3.1 5.9 6.6 6 11.1-.8 6.1-5.4 10.8-10.2 14.3-4.4-1.3-8.6-3.3-13-4.6l.3-.1c3.4-1.4 5.3-5 8.1-7.2a34 34 0 0 0 8.8-13.5Zm72.8 24.5.3-.2c2.3 4.5 5.7 9.1 5.3 14.4-3 5.3-8.7 8-13.7 11-8 4.6-16 10-25.1 12a90 90 0 0 0-11-12.8 247 247 0 0 0 44.2-24.4Z"/><path fill="#4d2f1d" fill-rule="nonzero" stroke="#4d2f1d" stroke-width=".1" d="M426 111c1.7 0 3.7-1 5.2.1 7.4 6.5 13 15 16.1 24.3 2 8.6 5.6 18 1.8 26.7l-1.3.1a47.8 47.8 0 0 0-5-32.2c-2.1-5.1-5.7-9.5-9.4-13.6-2.2-2.1-6.3-2.1-7.3-5.3Z"/><path fill="#ebd36f" stroke="#ebd36f" stroke-width=".1" d="M214 204.7c.1 2.7-.2 5.5-.7 8.2-10 4.4-20.3 8-31 10.3a24 24 0 0 1-12.4-.8c.3-.4 1-1.3 1.2-1.8 6-7 13.7-13 18-21.5 3.8-7.1 5-15.1 7.7-22.6 3-10.3 8-19.7 12.1-29.5 3.3-6.8 6-13.8 10.6-19.8 2.3 8.4 10.2 13.2 17.9 16a212 212 0 0 0 48 11.7c10.6.8 21.2 1.8 31.9 1.5 7.7-1 15.6-1.5 23.1-3.6 8.1-2.2 16-5.6 22.6-11 3.3-2.7 7.2-4.9 9.5-8.6 3.7 2.9 6.8 6.7 11 9.2 5 4.1 11.7 5 16.9 9-4.5 6.2-12.7 7.5-18.4 12.2v.4c-3.5 3-5.6 7-7.7 10.9h-.4c0 1.7-.2 3.3-.3 5-4.2-.4-8.2.6-12.4.8-.8-4.6-1.7-9.2-3.5-13.5-.6-1.9-3.5-3-5-1.7.3 5 2.3 9.8 2.5 14.8.5 6.2-1.4 12.5-5 17.6-6.8 10.6-16 19.2-24.4 28.4-4.7 6.2-11.1 11.3-13.6 18.8-1.3 2.9-1 6-1.4 9a70.3 70.3 0 0 1-14.1-16.1c-1.3-1.3-5.1-2.9-5.2.3-1.1 6.6-1.1 14-5.6 19.5a94 94 0 0 1-4.7-4.8c-16.4-13.7-37.4-20.1-54-33.7a37 37 0 0 1-5.5-5.3c-2.4-3-3.8-6.7-6.6-9.3H214Z"/><path fill="#ac994d" stroke="#ac994d" stroke-width=".1" d="M211.7 204.7h2.2c.2 2.7 0 5.5-.6 8.2-10 4.4-20.3 8-31 10.3a24 24 0 0 1-12.4-.8c.3-.4 1-1.3 1.2-1.8l2 .3c6.5-1.5 11.3-6.4 17.5-8.5 7-2.5 13.5-7 21.1-7.7ZM374 175c0 1.7-.2 3.3-.3 5-4.2-.4-8.2.6-12.4.8-.8-4.6-1.7-9.2-3.5-13.5-.6-1.9-3.5-3-5-1.7.3 5 2.3 9.8 2.5 14.8.5 6.2-1.4 12.5-5 17.6-6.8 10.6-16 19.2-24.4 28.4-4.7 6.2-11.1 11.3-13.6 18.8-1.3 2.9-1 6-1.4 9a70.3 70.3 0 0 1-14.1-16.1c-1.3-1.3-5.1-2.9-5.2.3-1.1 6.6-1.1 14-5.6 19.5a94 94 0 0 1-4.7-4.8 72 72 0 0 1-.6-3.5c-.9-8-2-16.2-1.8-24.3.3-2.4 1.3-7 4.6-5.6 3.4 1.8 6.2 4.7 9.9 6 3.7 1.3 7.5 3.4 11.5 3.3 1.6-2 2.6-4.3 3.8-6.5 3.6-6.9 8.8-12.6 12.6-19.3 5.7-9.8 11.4-21 9-32.7-1.6-6.6-8.4-9.6-12.9-14 7.7-1 15.6-1.5 23.1-3.6 8.1-2.2 16-5.6 22.6-11 3.3-2.7 7.2-4.9 9.5-8.6 3.7 2.9 6.8 6.7 11 9.2 5 4.1 11.7 5 16.9 9-4.5 6.2-12.7 7.5-18.4 12.2v.4c-3.5 3-5.6 7-7.7 10.9h-.4Z"/><path fill="#f2d6b6" stroke="#f2d6b6" stroke-width=".1" d="M60.5 227.3a23.4 23.4 0 0 1-10.4 3.3c.4-1.4.8-2.8 1.6-4 4.1-5.5 9.5-10.1 12.7-16.3 1.5-2.4-2-4.3-4-4.1-6.6.6-12.6 3.6-18.9 5.4-9 3.6-18.4 6.7-25.9 13-1.5 1.2-3.3 2.6-5.4 2.1l.4-1c2.8-5.6 6.4-11 10.8-15.6 7-4.5 14.7-7.7 21.9-12 1.3-1 2.2-2.4 3.2-3.7-1.3-.6-2.6-1.5-4-.5-5.9 2.8-11.7 5.9-17.5 9-3 1.9-6.4 3.4-8.7 6.2-2.4 2.6-5 5-6.6 8.2-1 1.8-1.6 4-3.6 5-.2-4.5 3.2-7.7 5.1-11.3 8-10.1 20-16 31.7-20.4 10-8 23.2-9.6 35.4-11.2 7.7-1 15.5 3 19.7 9.4l.2-.4c4.7 6.5 3.8 17.2-3.1 21.7-10.5 7.7-22.4 13-34.6 17.2ZM358.8 270c-2.8 2.5-4.6 6.3-8 8.2 0-6.6 5.7-11.8 5-18.4-2.3.7-4.6 2-6 4-4.5 5.8-8.4 12.2-13.9 17.1-1.2 1-2.2 2.7-4 2.4.7-4.8 2.1-9.4 3.9-13.8 2.4-5.8 6.4-11 6.9-17.5-5.3 0-7.2 5.6-9.4 9.4-3.3 5.8-5 12.4-7.5 18.6l-1.1.6c-1.3-9.4.3-19.4 5.4-27.5 1.3-2.3 3-4.9 1.6-7.5 1-5 6-7 9.2-10.6 3.5-2.8 6.9-6 10.9-8 3.7-1.9 7.8-.3 11.5.4a54 54 0 0 1 22 13.6c3.1 1.6 4.6 6 5 9.4-3.9 5-10.4 7.1-16 10-5.6 2.4-10 6.8-15.5 9.6Z"/><path fill="#ac9274" stroke="#ac9274" stroke-width=".1" d="m98 188.8.2-.4c4.7 6.5 3.8 17.2-3.1 21.7-10.5 7.7-22.4 13-34.6 17.2 2.5-2.1 4.8-4.4 7.6-6.2A96.1 96.1 0 0 0 98 188.8Zm275.2 63.4c4.2-3.7 8-7.7 12.2-11.3 3.1 1.6 4.6 6 5 9.4-3.9 5-10.4 7.1-16 10-5.6 2.4-10 6.8-15.5 9.6 2.6-7.4 9.5-12 14.3-17.7Z"/></svg>